<svg width="601" height="248" viewBox="0 0 601 248" fill="none" xmlns="http://www.w3.org/2000/svg">
<g clip-path="url(#clip0)">
<path d="M-44 250.791C-25.6337 216.015 29.5688 148.558 103.448 156.945C195.797 167.428 296.682 221.838 360.318 189.392C407.426 165.371 412.856 229.987 443.039 250.791H486.812C562.089 215.349 591.578 211.855 636.589 231.323C672.597 246.897 747.304 200.207 780.156 174.915C796.971 162.935 832.461 142.568 839.911 156.945C847.362 171.321 849.741 225.499 850 250.791H486.812C467.263 259.995 453.628 258.089 443.039 250.791H-44Z" fill="#251F67" fill-opacity="0.6"/>
<path d="M512.23 145.313C560.41 150.276 600.818 186.251 615 203.619V252H-47.4788L-74 215.404C-61.1077 208.788 -31.345 190.221 -15.4323 168.884C4.45868 142.212 59.7113 215.404 93.968 230.291C128.225 245.177 142.59 192.454 181.82 162.061C221.049 131.667 276.854 203.619 322.161 215.404C367.468 227.189 452.005 139.111 512.23 145.313Z" fill="#251F67" fill-opacity="0.6"/>
</g>
<defs>
<clipPath id="clip0">
<rect width="601" height="248" fill="white"/>
</clipPath>
</defs>
</svg>
